<mxfile host="app.diagrams.net" modified="2023-04-13T14:46:42.253Z" agent="Mozilla/5.0 (Windows NT 10.0; Win64; x64) AppleWebKit/537.36 (KHTML, like Gecko) Chrome/111.0.0.0 Safari/537.36" etag="pqwI7Ar7wl6syRQGgA21" version="21.1.4" type="github">
  <diagram name="Página-1" id="IJ9d2I5kXKG4MqcqSY9t">
    <mxGraphModel dx="1434" dy="1864" grid="1" gridSize="10" guides="1" tooltips="1" connect="1" arrows="1" fold="1" page="1" pageScale="1" pageWidth="1700" pageHeight="1100" math="0" shadow="0">
      <root>
        <mxCell id="0" />
        <mxCell id="1" parent="0" />
        <mxCell id="TYV_ldy_3dkVOk1DKOWO-15" value="Validación de AS para integración de la reserva" style="swimlane;childLayout=stackLayout;resizeParent=1;resizeParentMax=0;horizontal=1;startSize=20;horizontalStack=0;html=1;" vertex="1" parent="1">
          <mxGeometry x="40" y="-1080" width="1600" height="1030" as="geometry" />
        </mxCell>
        <mxCell id="TYV_ldy_3dkVOk1DKOWO-16" value="Lane 1" style="swimlane;startSize=20;horizontal=0;html=1;" vertex="1" parent="TYV_ldy_3dkVOk1DKOWO-15">
          <mxGeometry y="20" width="1600" height="1010" as="geometry" />
        </mxCell>
        <mxCell id="TYV_ldy_3dkVOk1DKOWO-1" value="Validar cumplimiento de condiciones del AS" style="shape=ext;rounded=1;html=1;whiteSpace=wrap;fillColor=#fff2cc;strokeColor=#d6b656;" vertex="1" parent="TYV_ldy_3dkVOk1DKOWO-16">
          <mxGeometry x="310" y="360" width="120" height="80" as="geometry" />
        </mxCell>
        <mxCell id="TYV_ldy_3dkVOk1DKOWO-2" style="edgeStyle=orthogonalEdgeStyle;rounded=0;html=1;jettySize=auto;orthogonalLoop=1;entryX=0;entryY=0.5;entryDx=0;entryDy=0;entryPerimeter=0;" edge="1" parent="TYV_ldy_3dkVOk1DKOWO-16" target="TYV_ldy_3dkVOk1DKOWO-19">
          <mxGeometry relative="1" as="geometry">
            <mxPoint x="90" y="400" as="sourcePoint" />
            <mxPoint x="140" y="400" as="targetPoint" />
          </mxGeometry>
        </mxCell>
        <mxCell id="TYV_ldy_3dkVOk1DKOWO-9" value="Estado del AS = P&lt;br&gt;Procesado" style="shape=ext;rounded=1;html=1;whiteSpace=wrap;fillColor=#fff2cc;strokeColor=#d6b656;" vertex="1" parent="TYV_ldy_3dkVOk1DKOWO-16">
          <mxGeometry x="600" y="70" width="120" height="80" as="geometry" />
        </mxCell>
        <mxCell id="TYV_ldy_3dkVOk1DKOWO-10" value="" style="shape=mxgraph.bpmn.shape;html=1;verticalLabelPosition=bottom;labelBackgroundColor=#ffffff;verticalAlign=top;perimeter=ellipsePerimeter;outline=standard;symbol=general;fillColor=#f8cecc;strokeColor=#b85450;" vertex="1" parent="TYV_ldy_3dkVOk1DKOWO-16">
          <mxGeometry x="40" y="375" width="50" height="50" as="geometry" />
        </mxCell>
        <mxCell id="TYV_ldy_3dkVOk1DKOWO-45" value="Si" style="edgeStyle=orthogonalEdgeStyle;rounded=0;orthogonalLoop=1;jettySize=auto;html=1;entryX=0;entryY=0.5;entryDx=0;entryDy=0;" edge="1" parent="TYV_ldy_3dkVOk1DKOWO-16" source="TYV_ldy_3dkVOk1DKOWO-14" target="TYV_ldy_3dkVOk1DKOWO-46">
          <mxGeometry relative="1" as="geometry">
            <mxPoint x="1080" y="410" as="targetPoint" />
          </mxGeometry>
        </mxCell>
        <mxCell id="TYV_ldy_3dkVOk1DKOWO-49" style="edgeStyle=orthogonalEdgeStyle;rounded=0;orthogonalLoop=1;jettySize=auto;html=1;entryX=0;entryY=0.5;entryDx=0;entryDy=0;exitX=1;exitY=0.5;exitDx=0;exitDy=0;" edge="1" parent="TYV_ldy_3dkVOk1DKOWO-16" source="TYV_ldy_3dkVOk1DKOWO-14" target="TYV_ldy_3dkVOk1DKOWO-47">
          <mxGeometry relative="1" as="geometry">
            <Array as="points">
              <mxPoint x="980" y="450" />
              <mxPoint x="980" y="335" />
            </Array>
          </mxGeometry>
        </mxCell>
        <mxCell id="TYV_ldy_3dkVOk1DKOWO-50" value="No" style="edgeLabel;html=1;align=center;verticalAlign=middle;resizable=0;points=[];" vertex="1" connectable="0" parent="TYV_ldy_3dkVOk1DKOWO-49">
          <mxGeometry x="-0.072" y="2" relative="1" as="geometry">
            <mxPoint as="offset" />
          </mxGeometry>
        </mxCell>
        <mxCell id="TYV_ldy_3dkVOk1DKOWO-14" value="Cumple todas las condiciones?" style="rhombus;whiteSpace=wrap;html=1;fillColor=#d5e8d4;strokeColor=#82b366;" vertex="1" parent="TYV_ldy_3dkVOk1DKOWO-16">
          <mxGeometry x="880" y="410" width="80" height="80" as="geometry" />
        </mxCell>
        <mxCell id="TYV_ldy_3dkVOk1DKOWO-8" style="edgeStyle=orthogonalEdgeStyle;rounded=0;orthogonalLoop=1;jettySize=auto;html=1;entryX=0.5;entryY=0;entryDx=0;entryDy=0;" edge="1" parent="TYV_ldy_3dkVOk1DKOWO-16" source="TYV_ldy_3dkVOk1DKOWO-9" target="TYV_ldy_3dkVOk1DKOWO-14">
          <mxGeometry relative="1" as="geometry">
            <mxPoint x="1230" y="415" as="targetPoint" />
          </mxGeometry>
        </mxCell>
        <mxCell id="TYV_ldy_3dkVOk1DKOWO-20" style="edgeStyle=orthogonalEdgeStyle;rounded=0;orthogonalLoop=1;jettySize=auto;html=1;entryX=0;entryY=0.5;entryDx=0;entryDy=0;" edge="1" parent="TYV_ldy_3dkVOk1DKOWO-16" source="TYV_ldy_3dkVOk1DKOWO-19" target="TYV_ldy_3dkVOk1DKOWO-1">
          <mxGeometry relative="1" as="geometry" />
        </mxCell>
        <mxCell id="TYV_ldy_3dkVOk1DKOWO-19" value="Generar número para facturar (AS)" style="points=[[0.25,0,0],[0.5,0,0],[0.75,0,0],[1,0.25,0],[1,0.5,0],[1,0.75,0],[0.75,1,0],[0.5,1,0],[0.25,1,0],[0,0.75,0],[0,0.5,0],[0,0.25,0]];shape=mxgraph.bpmn.task;whiteSpace=wrap;rectStyle=rounded;size=10;html=1;container=1;expand=0;collapsible=0;taskMarker=service;fillColor=#fff2cc;strokeColor=#d6b656;" vertex="1" parent="TYV_ldy_3dkVOk1DKOWO-16">
          <mxGeometry x="140" y="360" width="120" height="80" as="geometry" />
        </mxCell>
        <mxCell id="TYV_ldy_3dkVOk1DKOWO-22" style="edgeStyle=orthogonalEdgeStyle;rounded=0;orthogonalLoop=1;jettySize=auto;html=1;entryX=0;entryY=0.5;entryDx=0;entryDy=0;" edge="1" parent="TYV_ldy_3dkVOk1DKOWO-16" source="TYV_ldy_3dkVOk1DKOWO-21" target="TYV_ldy_3dkVOk1DKOWO-9">
          <mxGeometry relative="1" as="geometry">
            <mxPoint x="580" y="400" as="targetPoint" />
          </mxGeometry>
        </mxCell>
        <mxCell id="TYV_ldy_3dkVOk1DKOWO-30" style="edgeStyle=orthogonalEdgeStyle;rounded=0;orthogonalLoop=1;jettySize=auto;html=1;entryX=0;entryY=0.5;entryDx=0;entryDy=0;" edge="1" parent="TYV_ldy_3dkVOk1DKOWO-16" source="TYV_ldy_3dkVOk1DKOWO-21" target="TYV_ldy_3dkVOk1DKOWO-23">
          <mxGeometry relative="1" as="geometry" />
        </mxCell>
        <mxCell id="TYV_ldy_3dkVOk1DKOWO-31" style="edgeStyle=orthogonalEdgeStyle;rounded=0;orthogonalLoop=1;jettySize=auto;html=1;entryX=0;entryY=0.5;entryDx=0;entryDy=0;" edge="1" parent="TYV_ldy_3dkVOk1DKOWO-16" source="TYV_ldy_3dkVOk1DKOWO-21" target="TYV_ldy_3dkVOk1DKOWO-24">
          <mxGeometry relative="1" as="geometry" />
        </mxCell>
        <mxCell id="TYV_ldy_3dkVOk1DKOWO-32" style="edgeStyle=orthogonalEdgeStyle;rounded=0;orthogonalLoop=1;jettySize=auto;html=1;entryX=0;entryY=0.5;entryDx=0;entryDy=0;" edge="1" parent="TYV_ldy_3dkVOk1DKOWO-16" source="TYV_ldy_3dkVOk1DKOWO-21" target="TYV_ldy_3dkVOk1DKOWO-25">
          <mxGeometry relative="1" as="geometry" />
        </mxCell>
        <mxCell id="TYV_ldy_3dkVOk1DKOWO-33" style="edgeStyle=orthogonalEdgeStyle;rounded=0;orthogonalLoop=1;jettySize=auto;html=1;entryX=0;entryY=0.5;entryDx=0;entryDy=0;" edge="1" parent="TYV_ldy_3dkVOk1DKOWO-16" source="TYV_ldy_3dkVOk1DKOWO-21" target="TYV_ldy_3dkVOk1DKOWO-26">
          <mxGeometry relative="1" as="geometry" />
        </mxCell>
        <mxCell id="TYV_ldy_3dkVOk1DKOWO-34" style="edgeStyle=orthogonalEdgeStyle;rounded=0;orthogonalLoop=1;jettySize=auto;html=1;entryX=0;entryY=0.5;entryDx=0;entryDy=0;" edge="1" parent="TYV_ldy_3dkVOk1DKOWO-16" source="TYV_ldy_3dkVOk1DKOWO-21" target="TYV_ldy_3dkVOk1DKOWO-27">
          <mxGeometry relative="1" as="geometry" />
        </mxCell>
        <mxCell id="TYV_ldy_3dkVOk1DKOWO-35" style="edgeStyle=orthogonalEdgeStyle;rounded=0;orthogonalLoop=1;jettySize=auto;html=1;entryX=0;entryY=0.5;entryDx=0;entryDy=0;" edge="1" parent="TYV_ldy_3dkVOk1DKOWO-16" source="TYV_ldy_3dkVOk1DKOWO-21" target="TYV_ldy_3dkVOk1DKOWO-28">
          <mxGeometry relative="1" as="geometry" />
        </mxCell>
        <mxCell id="TYV_ldy_3dkVOk1DKOWO-36" style="edgeStyle=orthogonalEdgeStyle;rounded=0;orthogonalLoop=1;jettySize=auto;html=1;entryX=0;entryY=0.5;entryDx=0;entryDy=0;" edge="1" parent="TYV_ldy_3dkVOk1DKOWO-16" source="TYV_ldy_3dkVOk1DKOWO-21" target="TYV_ldy_3dkVOk1DKOWO-29">
          <mxGeometry relative="1" as="geometry" />
        </mxCell>
        <mxCell id="TYV_ldy_3dkVOk1DKOWO-56" style="edgeStyle=orthogonalEdgeStyle;rounded=0;orthogonalLoop=1;jettySize=auto;html=1;entryX=0;entryY=0.5;entryDx=0;entryDy=0;" edge="1" parent="TYV_ldy_3dkVOk1DKOWO-16" source="TYV_ldy_3dkVOk1DKOWO-21" target="TYV_ldy_3dkVOk1DKOWO-55">
          <mxGeometry relative="1" as="geometry" />
        </mxCell>
        <mxCell id="TYV_ldy_3dkVOk1DKOWO-21" value="" style="points=[[0.25,0.25,0],[0.5,0,0],[0.75,0.25,0],[1,0.5,0],[0.75,0.75,0],[0.5,1,0],[0.25,0.75,0],[0,0.5,0]];shape=mxgraph.bpmn.gateway2;html=1;verticalLabelPosition=bottom;labelBackgroundColor=#ffffff;verticalAlign=top;align=center;perimeter=rhombusPerimeter;outlineConnect=0;outline=none;symbol=none;gwType=parallel;" vertex="1" parent="TYV_ldy_3dkVOk1DKOWO-16">
          <mxGeometry x="480" y="375" width="50" height="50" as="geometry" />
        </mxCell>
        <mxCell id="TYV_ldy_3dkVOk1DKOWO-5" style="edgeStyle=orthogonalEdgeStyle;rounded=0;orthogonalLoop=1;jettySize=auto;html=1;entryX=0;entryY=0.5;entryDx=0;entryDy=0;entryPerimeter=0;" edge="1" parent="TYV_ldy_3dkVOk1DKOWO-16" source="TYV_ldy_3dkVOk1DKOWO-1" target="TYV_ldy_3dkVOk1DKOWO-21">
          <mxGeometry relative="1" as="geometry">
            <mxPoint x="460" y="400" as="targetPoint" />
          </mxGeometry>
        </mxCell>
        <mxCell id="TYV_ldy_3dkVOk1DKOWO-38" style="edgeStyle=orthogonalEdgeStyle;rounded=0;orthogonalLoop=1;jettySize=auto;html=1;" edge="1" parent="TYV_ldy_3dkVOk1DKOWO-16" source="TYV_ldy_3dkVOk1DKOWO-23" target="TYV_ldy_3dkVOk1DKOWO-14">
          <mxGeometry relative="1" as="geometry" />
        </mxCell>
        <mxCell id="TYV_ldy_3dkVOk1DKOWO-23" value="Status = N = Ninguno" style="shape=ext;rounded=1;html=1;whiteSpace=wrap;fillColor=#fff2cc;strokeColor=#d6b656;" vertex="1" parent="TYV_ldy_3dkVOk1DKOWO-16">
          <mxGeometry x="600" y="170" width="120" height="80" as="geometry" />
        </mxCell>
        <mxCell id="TYV_ldy_3dkVOk1DKOWO-39" style="edgeStyle=orthogonalEdgeStyle;rounded=0;orthogonalLoop=1;jettySize=auto;html=1;entryX=0.5;entryY=0;entryDx=0;entryDy=0;" edge="1" parent="TYV_ldy_3dkVOk1DKOWO-16" source="TYV_ldy_3dkVOk1DKOWO-24" target="TYV_ldy_3dkVOk1DKOWO-14">
          <mxGeometry relative="1" as="geometry">
            <mxPoint x="920" y="350" as="targetPoint" />
            <Array as="points">
              <mxPoint x="920" y="310" />
            </Array>
          </mxGeometry>
        </mxCell>
        <mxCell id="TYV_ldy_3dkVOk1DKOWO-24" value="Valor total de la autorización &amp;gt; 0" style="shape=ext;rounded=1;html=1;whiteSpace=wrap;fillColor=#fff2cc;strokeColor=#d6b656;" vertex="1" parent="TYV_ldy_3dkVOk1DKOWO-16">
          <mxGeometry x="600" y="270" width="120" height="80" as="geometry" />
        </mxCell>
        <mxCell id="TYV_ldy_3dkVOk1DKOWO-40" style="edgeStyle=orthogonalEdgeStyle;rounded=0;orthogonalLoop=1;jettySize=auto;html=1;entryX=0;entryY=0.5;entryDx=0;entryDy=0;" edge="1" parent="TYV_ldy_3dkVOk1DKOWO-16" source="TYV_ldy_3dkVOk1DKOWO-25" target="TYV_ldy_3dkVOk1DKOWO-14">
          <mxGeometry relative="1" as="geometry">
            <mxPoint x="810" y="410" as="targetPoint" />
          </mxGeometry>
        </mxCell>
        <mxCell id="TYV_ldy_3dkVOk1DKOWO-25" value="Clase P = PBS o POSS" style="shape=ext;rounded=1;html=1;whiteSpace=wrap;fillColor=#fff2cc;strokeColor=#d6b656;" vertex="1" parent="TYV_ldy_3dkVOk1DKOWO-16">
          <mxGeometry x="600" y="370" width="120" height="80" as="geometry" />
        </mxCell>
        <mxCell id="TYV_ldy_3dkVOk1DKOWO-41" style="edgeStyle=orthogonalEdgeStyle;rounded=0;orthogonalLoop=1;jettySize=auto;html=1;" edge="1" parent="TYV_ldy_3dkVOk1DKOWO-16" source="TYV_ldy_3dkVOk1DKOWO-26" target="TYV_ldy_3dkVOk1DKOWO-14">
          <mxGeometry relative="1" as="geometry" />
        </mxCell>
        <mxCell id="TYV_ldy_3dkVOk1DKOWO-26" value="Anticipo N = Ninguno o no marcada" style="shape=ext;rounded=1;html=1;whiteSpace=wrap;fillColor=#fff2cc;strokeColor=#d6b656;" vertex="1" parent="TYV_ldy_3dkVOk1DKOWO-16">
          <mxGeometry x="600" y="470" width="120" height="80" as="geometry" />
        </mxCell>
        <mxCell id="TYV_ldy_3dkVOk1DKOWO-42" style="edgeStyle=orthogonalEdgeStyle;rounded=0;orthogonalLoop=1;jettySize=auto;html=1;entryX=0.5;entryY=1;entryDx=0;entryDy=0;" edge="1" parent="TYV_ldy_3dkVOk1DKOWO-16" source="TYV_ldy_3dkVOk1DKOWO-27" target="TYV_ldy_3dkVOk1DKOWO-14">
          <mxGeometry relative="1" as="geometry" />
        </mxCell>
        <mxCell id="TYV_ldy_3dkVOk1DKOWO-27" value="El periodo de la orden= periodo actual (mes y año)" style="shape=ext;rounded=1;html=1;whiteSpace=wrap;fillColor=#fff2cc;strokeColor=#d6b656;" vertex="1" parent="TYV_ldy_3dkVOk1DKOWO-16">
          <mxGeometry x="600" y="570" width="120" height="80" as="geometry" />
        </mxCell>
        <mxCell id="TYV_ldy_3dkVOk1DKOWO-43" style="edgeStyle=orthogonalEdgeStyle;rounded=0;orthogonalLoop=1;jettySize=auto;html=1;entryX=0.5;entryY=1;entryDx=0;entryDy=0;" edge="1" parent="TYV_ldy_3dkVOk1DKOWO-16" source="TYV_ldy_3dkVOk1DKOWO-28" target="TYV_ldy_3dkVOk1DKOWO-14">
          <mxGeometry relative="1" as="geometry">
            <mxPoint x="750" y="710" as="targetPoint" />
          </mxGeometry>
        </mxCell>
        <mxCell id="TYV_ldy_3dkVOk1DKOWO-28" value="Documento de contabilidad S = Si Contabiliza" style="shape=ext;rounded=1;html=1;whiteSpace=wrap;fillColor=#fff2cc;strokeColor=#d6b656;" vertex="1" parent="TYV_ldy_3dkVOk1DKOWO-16">
          <mxGeometry x="600" y="670" width="120" height="80" as="geometry" />
        </mxCell>
        <mxCell id="TYV_ldy_3dkVOk1DKOWO-44" style="edgeStyle=orthogonalEdgeStyle;rounded=0;orthogonalLoop=1;jettySize=auto;html=1;entryX=0.5;entryY=1;entryDx=0;entryDy=0;" edge="1" parent="TYV_ldy_3dkVOk1DKOWO-16" source="TYV_ldy_3dkVOk1DKOWO-29" target="TYV_ldy_3dkVOk1DKOWO-14">
          <mxGeometry relative="1" as="geometry" />
        </mxCell>
        <mxCell id="TYV_ldy_3dkVOk1DKOWO-29" value="Periodo contable abierto" style="shape=ext;rounded=1;html=1;whiteSpace=wrap;fillColor=#fff2cc;strokeColor=#d6b656;" vertex="1" parent="TYV_ldy_3dkVOk1DKOWO-16">
          <mxGeometry x="600" y="770" width="120" height="80" as="geometry" />
        </mxCell>
        <mxCell id="TYV_ldy_3dkVOk1DKOWO-37" value="" style="shape=mxgraph.bpmn.shape;html=1;verticalLabelPosition=bottom;labelBackgroundColor=#ffffff;verticalAlign=top;perimeter=ellipsePerimeter;outline=standard;symbol=general;fillColor=#f8cecc;strokeColor=#b85450;strokeWidth=3;" vertex="1" parent="TYV_ldy_3dkVOk1DKOWO-16">
          <mxGeometry x="1430" y="425" width="50" height="50" as="geometry" />
        </mxCell>
        <mxCell id="TYV_ldy_3dkVOk1DKOWO-51" style="edgeStyle=orthogonalEdgeStyle;rounded=0;orthogonalLoop=1;jettySize=auto;html=1;" edge="1" parent="TYV_ldy_3dkVOk1DKOWO-16" source="TYV_ldy_3dkVOk1DKOWO-46" target="TYV_ldy_3dkVOk1DKOWO-52">
          <mxGeometry relative="1" as="geometry">
            <mxPoint x="1270" y="465" as="targetPoint" />
          </mxGeometry>
        </mxCell>
        <mxCell id="TYV_ldy_3dkVOk1DKOWO-46" value="Se integra el valor de la reserva en EMCP y SOFSIN" style="shape=ext;rounded=1;html=1;whiteSpace=wrap;fillColor=#fff2cc;strokeColor=#d6b656;" vertex="1" parent="TYV_ldy_3dkVOk1DKOWO-16">
          <mxGeometry x="1080" y="410" width="120" height="80" as="geometry" />
        </mxCell>
        <mxCell id="TYV_ldy_3dkVOk1DKOWO-48" style="edgeStyle=orthogonalEdgeStyle;rounded=0;orthogonalLoop=1;jettySize=auto;html=1;entryX=0.5;entryY=0;entryDx=0;entryDy=0;" edge="1" parent="TYV_ldy_3dkVOk1DKOWO-16" source="TYV_ldy_3dkVOk1DKOWO-47" target="TYV_ldy_3dkVOk1DKOWO-37">
          <mxGeometry relative="1" as="geometry" />
        </mxCell>
        <mxCell id="TYV_ldy_3dkVOk1DKOWO-47" value="No se integra el valor a EMCP" style="shape=ext;rounded=1;html=1;whiteSpace=wrap;fillColor=#fff2cc;strokeColor=#d6b656;" vertex="1" parent="TYV_ldy_3dkVOk1DKOWO-16">
          <mxGeometry x="1080" y="295" width="120" height="80" as="geometry" />
        </mxCell>
        <mxCell id="TYV_ldy_3dkVOk1DKOWO-54" style="edgeStyle=orthogonalEdgeStyle;rounded=0;orthogonalLoop=1;jettySize=auto;html=1;" edge="1" parent="TYV_ldy_3dkVOk1DKOWO-16" source="TYV_ldy_3dkVOk1DKOWO-52" target="TYV_ldy_3dkVOk1DKOWO-37">
          <mxGeometry relative="1" as="geometry" />
        </mxCell>
        <mxCell id="TYV_ldy_3dkVOk1DKOWO-52" value="Se integra para Consulta Externa 96%&lt;br&gt;Hospitalización: 93%" style="shape=ext;rounded=1;html=1;whiteSpace=wrap;fillColor=#fff2cc;strokeColor=#d6b656;" vertex="1" parent="TYV_ldy_3dkVOk1DKOWO-16">
          <mxGeometry x="1250" y="410" width="130" height="80" as="geometry" />
        </mxCell>
        <mxCell id="TYV_ldy_3dkVOk1DKOWO-57" style="edgeStyle=orthogonalEdgeStyle;rounded=0;orthogonalLoop=1;jettySize=auto;html=1;entryX=0.5;entryY=1;entryDx=0;entryDy=0;" edge="1" parent="TYV_ldy_3dkVOk1DKOWO-16" source="TYV_ldy_3dkVOk1DKOWO-55" target="TYV_ldy_3dkVOk1DKOWO-14">
          <mxGeometry relative="1" as="geometry">
            <mxPoint x="930" y="750" as="targetPoint" />
          </mxGeometry>
        </mxCell>
        <mxCell id="TYV_ldy_3dkVOk1DKOWO-55" value="Nit de proveedor sea diferente a 806008394" style="shape=ext;rounded=1;html=1;whiteSpace=wrap;fillColor=#fff2cc;strokeColor=#d6b656;" vertex="1" parent="TYV_ldy_3dkVOk1DKOWO-16">
          <mxGeometry x="600" y="870" width="120" height="80" as="geometry" />
        </mxCell>
      </root>
    </mxGraphModel>
  </diagram>
</mxfile>
